<svg xmlns="http://www.w3.org/2000/svg" data-name="Layer 1" viewBox="0 0 100 125" x="0px" y="0px"><title>web-icon2</title><path d="M71,72a1,1,0,0,0-1-1H13.49c0-.21,0-.42,0-.63v-42H74.32a2.88,2.88,0,0,1,2.88,2.88V45.9a1.5,1.5,0,0,0,3,0V31.25a5.88,5.88,0,0,0-5.88-5.88H49.49A7,7,0,0,1,44,22.67l-1.47-1.89a10,10,0,0,0-7.91-3.86H16.33a5.88,5.88,0,0,0-5.88,5.88V70.33A12.77,12.77,0,0,0,23.22,83.08H69.36a1.5,1.5,0,1,0,0-3H23.22A9.77,9.77,0,0,1,13.83,73H70A1,1,0,0,0,71,72Zm-54.7-52H34.58a7,7,0,0,1,5.54,2.71l1.47,1.89a10.21,10.21,0,0,0,.75.86H13.46V22.8A2.88,2.88,0,0,1,16.33,19.92Z"/><path d="M16.67,33.25a2.42,2.42,0,1,0,2.42-2.42A2.43,2.43,0,0,0,16.67,33.25Zm3.85,0a1.42,1.42,0,1,1-1.42-1.42A1.43,1.43,0,0,1,20.52,33.25Z"/><path d="M22.61,33.25A2.42,2.42,0,1,0,25,30.83,2.43,2.43,0,0,0,22.61,33.25Zm3.85,0A1.42,1.42,0,1,1,25,31.83,1.43,1.43,0,0,1,26.46,33.25Z"/><path d="M28.56,33.25A2.42,2.42,0,1,0,31,30.83,2.43,2.43,0,0,0,28.56,33.25Zm3.85,0A1.42,1.42,0,1,1,31,31.83,1.43,1.43,0,0,1,32.41,33.25Z"/><path d="M89,61.22l-9.34-12a1.29,1.29,0,0,0-2,0l-9.34,12a1.25,1.25,0,0,0,1,2h3.28V73.64a1.25,1.25,0,0,0,1.25,1.25h9.62a1.25,1.25,0,0,0,1.25-1.25V63.23H88a1.25,1.25,0,0,0,1-2ZM82.26,72.39H75.14V63.23h7.12Zm1.25-11.66H71.92L78.7,52l6.78,8.7Z"/><path d="M83.51,76.09H73.89a1.25,1.25,0,0,0,0,2.5h9.62a1.25,1.25,0,0,0,0-2.5Z"/><path d="M83.51,79.78H73.89a1.25,1.25,0,0,0,0,2.5h9.62a1.25,1.25,0,0,0,0-2.5Z"/><text x="0" y="115" fill="#000000" font-size="5px" font-weight="bold" font-family="'Helvetica Neue', Helvetica, Arial-Unicode, Arial, Sans-serif">Created by OSstudios</text><text x="0" y="120" fill="#000000" font-size="5px" font-weight="bold" font-family="'Helvetica Neue', Helvetica, Arial-Unicode, Arial, Sans-serif">from the Noun Project</text></svg>