<svg xmlns="http://www.w3.org/2000/svg" viewBox="0 0 32 40" x="0px" y="0px"><title>Hospital</title><g><path d="M29,2H15a1,1,0,0,0-1,1v9H3a1,1,0,0,0-1,1V29a1,1,0,0,0,1,1H25a1,1,0,0,0,0-2H12V21a1,1,0,0,0-1-1H7a1,1,0,0,0-1,1v7H4V14H14V25a1,1,0,0,0,2,0V4H28V29a1,1,0,0,0,2,0V3A1,1,0,0,0,29,2ZM8,22h2v6H8Zm18-8v1a1,1,0,0,1-1,1H24a1,1,0,0,1-1-1V14a1,1,0,0,1,1-1h1A1,1,0,0,1,26,14Zm-5,1a1,1,0,0,1-1,1H19a1,1,0,0,1-1-1V14a1,1,0,0,1,1-1h1a1,1,0,0,1,1,1Zm0,5a1,1,0,0,1-1,1H19a1,1,0,0,1-1-1V19a1,1,0,0,1,1-1h1a1,1,0,0,1,1,1Zm0,4v1a1,1,0,0,1-1,1H19a1,1,0,0,1-1-1V24a1,1,0,0,1,1-1h1A1,1,0,0,1,21,24Zm5-5v1a1,1,0,0,1-1,1H24a1,1,0,0,1-1-1V19a1,1,0,0,1,1-1h1A1,1,0,0,1,26,19Zm0,5v1a1,1,0,0,1-1,1H24a1,1,0,0,1-1-1V24a1,1,0,0,1,1-1h1A1,1,0,0,1,26,24ZM11,16a1,1,0,0,1,0,2H7a1,1,0,0,1,0-2Zm10-5V10H20a1,1,0,0,1,0-2h1V7a1,1,0,0,1,2,0V8h1a1,1,0,0,1,0,2H23v1a1,1,0,0,1-2,0Z"/></g><text x="0" y="47" fill="#000000" font-size="5px" font-weight="bold" font-family="'Helvetica Neue', Helvetica, Arial-Unicode, Arial, Sans-serif">Created by Invinic Studio</text><text x="0" y="52" fill="#000000" font-size="5px" font-weight="bold" font-family="'Helvetica Neue', Helvetica, Arial-Unicode, Arial, Sans-serif">from the Noun Project</text></svg>